<svg width="625" height="105" viewBox="0 0 625 105" fill="none" xmlns="http://www.w3.org/2000/svg">
<g opacity="0.2">
<g clip-path="url(#clip0_139_149)">
<path d="M0 87.4231V43.7115H14.4603V58.2882H57.8228V43.7115H14.4603V29.1348H57.8228V43.7115H72.2648V72.8464H14.4603V87.4231H72.2648V102H14.4603V87.4231H0Z" fill="white"/>
<path d="M101.551 0H87.0908V102H101.551V0Z" fill="white"/>
<path d="M115.81 87.4231V43.7115H130.271V58.2882H173.633V43.7115H130.271V29.1348H173.633V43.7115H188.093V72.8464H130.271V87.4231H188.093V102H130.271V87.4231H115.81Z" fill="white"/>
<path d="M246.263 102H231.821V87.4231H217.361V58.2882H202.919V29.1348H217.379V58.2882H231.84V87.4231H246.282L246.263 102ZM260.724 87.4231H246.282V58.2882H260.724V87.4231ZM275.184 58.2882H260.724V29.1532H275.184V58.2882Z" fill="white"/>
<path d="M289.626 87.4231V43.7115H304.086V58.2882H347.449V43.7115H304.086V29.1348H347.449V43.7115H361.909V72.8464H304.086V87.4231H361.909V102H304.086V87.4231H289.626Z" fill="white"/>
<path d="M449 102H434.54V43.7115H391.177V102H376.717V29.1348H434.54V43.7115H449V102Z" fill="white"/>
</g>
<path d="M529.89 26.1C531.283 26.1 532.493 26.5033 533.52 27.31C534.62 28.1167 535.353 29.18 535.72 30.5L557.72 102H540.56L525.05 46.23C524.757 44.9833 524.463 43.7367 524.17 42.49C523.877 41.17 523.62 39.9233 523.4 38.75H520.43C520.21 39.9233 519.953 41.17 519.66 42.49C519.44 43.7367 519.147 44.9833 518.78 46.23L503.27 102H486L508.11 30.5C508.477 29.18 509.173 28.1167 510.2 27.31C511.3 26.5033 512.547 26.1 513.94 26.1H529.89ZM541.55 69.33V81.98H502.17V69.33H541.55ZM623.411 26.1L602.731 97.38C602.364 98.7 601.631 99.8 600.531 100.68C599.504 101.56 598.257 102 596.791 102H581.391C579.851 102 578.531 101.56 577.431 100.68C576.404 99.8 575.744 98.7 575.451 97.38L554.661 26.1H572.041L585.901 80.88C586.194 82.2733 586.487 83.7033 586.781 85.17C587.147 86.5633 587.441 87.9567 587.661 89.35H590.521C590.741 87.9567 590.997 86.5267 591.291 85.06C591.657 83.5933 592.024 82.1633 592.391 80.77L606.141 26.1H623.411Z" fill="white"/>
</g>
<defs>
<clipPath id="clip0_139_149">
<rect width="449" height="102" fill="white"/>
</clipPath>
</defs>
</svg>
