<svg width="194" height="45" viewBox="0 0 194 45" fill="none" xmlns="http://www.w3.org/2000/svg">
<g clip-path="url(#clip0_263_199)">
<path d="M0 37.7669V18.8834H6.24684V25.1806H24.9795V18.8834H6.24684V12.5863H24.9795V18.8834H31.2184V31.4697H6.24684V37.7669H31.2184V44.064H6.24684V37.7669H0Z" fill="black"/>
<path d="M43.8699 0H37.623V44.064H43.8699V0Z" fill="black"/>
<path d="M50.0293 37.7669V18.8834H56.2761V25.1806H75.0088V18.8834H56.2761V12.5863H75.0088V18.8834H81.2556V31.4697H56.2761V37.7669H81.2556V44.064H56.2761V37.7669H50.0293Z" fill="black"/>
<path d="M106.387 44.064H100.148V37.7669H93.9011V25.1806H87.6621V12.5863H93.909V25.1806H100.156V37.7669H106.395L106.387 44.064ZM112.634 37.7669H106.395V25.1806H112.634V37.7669ZM118.881 25.1806H112.634V12.5943H118.881V25.1806Z" fill="black"/>
<path d="M125.119 37.7669V18.8834H131.366V25.1806H150.099V18.8834H131.366V12.5863H150.099V18.8834H156.345V31.4697H131.366V37.7669H156.345V44.064H131.366V37.7669H125.119Z" fill="black"/>
<path d="M193.968 44.064H187.722V18.8834H168.989V44.064H162.742V12.5863H187.722V18.8834H193.968V44.064Z" fill="black"/>
</g>
<defs>
<clipPath id="clip0_263_199">
<rect width="193.968" height="44.064" fill="white"/>
</clipPath>
</defs>
</svg>
