<svg width="86" height="66" viewBox="0 0 86 66" fill="none" xmlns="http://www.w3.org/2000/svg">
<path d="M18.5599 1.65503C18.2011 1.29384 17.7736 1.00594 17.3019 0.807788C16.8302 0.609633 16.3236 0.505107 15.811 0.500182C15.2983 0.495258 14.7897 0.590032 14.3142 0.779088C13.8388 0.968144 13.4057 1.24778 13.0398 1.60201C8.90076 5.66147 5.61751 10.4893 3.37946 15.8069C1.1414 21.1244 -0.00715933 26.8266 3.35761e-05 32.5843C-0.00667955 38.563 1.23227 44.4792 3.64 49.9657C6.04772 55.4523 9.57283 60.3921 13.9965 64.4786C14.7411 65.1576 15.7245 65.5236 16.7382 65.4988C17.7518 65.4741 18.7157 65.0606 19.4253 64.3461C21.1238 62.6705 20.9141 60.0034 19.2801 58.4604C15.73 55.1226 12.9048 51.1076 10.9764 46.6593C9.04801 42.211 8.05663 37.4223 8.06253 32.5843C8.06253 22.796 12.0454 13.9196 18.5061 7.46124C20.0649 5.89701 20.2261 3.2988 18.5599 1.65503ZM28.0253 11.0033C27.3174 10.2847 26.3496 9.87231 25.334 9.85641C24.3185 9.84051 23.3379 10.2224 22.6073 10.9184C19.6991 13.7497 17.3908 17.1233 15.8165 20.8428C14.2423 24.5623 13.4336 28.5536 13.4375 32.5843C13.4312 36.8462 14.3339 41.0617 16.0868 44.957C17.8398 48.8523 20.4038 52.3401 23.6124 55.194C24.3501 55.837 25.3103 56.1753 26.294 56.1388C27.2777 56.1022 28.2094 55.6937 28.896 54.9978C30.659 53.2586 30.3311 50.5226 28.6756 48.9849C26.4064 46.8805 24.5987 44.3393 23.3645 41.5184C22.1303 38.6974 21.4957 35.6568 21.5 32.5843C21.5 26.4865 23.9564 20.9507 27.95 16.889C29.4873 15.3301 29.7399 12.6895 28.0253 11.0033ZM57.9748 11.0033C58.6826 10.2847 59.6504 9.87231 60.666 9.85641C61.6816 9.84051 62.6621 10.2224 63.3927 10.9184C66.3009 13.7497 68.6092 17.1233 70.1835 20.8428C71.7577 24.5623 72.5664 28.5536 72.5625 32.5843C72.5688 36.8462 71.6662 41.0617 69.9132 44.957C68.1602 48.8523 65.5962 52.3401 62.3876 55.194C61.6499 55.837 60.6897 56.1753 59.706 56.1388C58.7223 56.1022 57.7906 55.6937 57.104 54.9978C55.341 53.2586 55.6689 50.5226 57.3244 48.9849C59.5937 46.8805 61.4013 44.3393 62.6355 41.5184C63.8697 38.6974 64.5043 35.6568 64.5 32.5843C64.5 26.4865 62.0436 20.9507 58.05 16.889C56.5128 15.3301 56.2601 12.6895 57.9748 11.0033ZM67.4401 1.66034C67.799 1.29915 68.2264 1.01124 68.6981 0.81309C69.1698 0.614935 69.6764 0.51041 70.189 0.505486C70.7017 0.500562 71.2103 0.595334 71.6858 0.78439C72.1613 0.973446 72.5943 1.25308 72.9602 1.60731C77.0986 5.66614 80.3815 10.4931 82.6195 15.8097C84.8576 21.1263 86.0065 26.8275 86 32.5843C86.0067 38.563 84.7677 44.4792 82.36 49.9657C79.9523 55.4523 76.4272 60.3921 72.0035 64.4786C71.259 65.1576 70.2755 65.5236 69.2619 65.4988C68.2482 65.4741 67.2843 65.0606 66.5747 64.3461C64.8762 62.6705 65.0859 60.0034 66.7252 58.4604C70.2745 55.1222 73.0986 51.107 75.0261 46.6587C76.9535 42.2104 77.9441 37.422 77.9375 32.5843C77.9375 22.796 73.9546 13.9196 67.4939 7.46124C65.9351 5.89701 65.7739 3.2988 67.4401 1.65503V1.66034ZM43 24.6306C40.8617 24.6306 38.811 25.4686 37.299 26.9602C35.7869 28.4518 34.9375 30.4749 34.9375 32.5843C34.9375 34.6938 35.7869 36.7168 37.299 38.2084C38.811 39.7 40.8617 40.538 43 40.538C45.1383 40.538 47.189 39.7 48.7011 38.2084C50.2131 36.7168 51.0625 34.6938 51.0625 32.5843C51.0625 30.4749 50.2131 28.4518 48.7011 26.9602C47.189 25.4686 45.1383 24.6306 43 24.6306Z" fill="black"/>
</svg>
